<svg width="97" height="1002" viewBox="0 0 97 1002" fill="none" xmlns="http://www.w3.org/2000/svg">
<path d="M23.9568 1001.39L96.3695 997.414H29.6308L47.1824 994.715L21.309 992.766L96.3695 989.017H25.3943L44.7615 987.218L25.3943 985.569L96.3695 981.52L20.7164 980.621L44.9254 978.821L26.7686 977.472L95.613 973.273H17.9802L46.4258 970.899L34.0187 969.85L95.2978 965.651H15.1054L48.998 962.652L36.2883 961.753L94.0873 958.604H11.9784L53.1338 955.005L41.6345 954.105L93.3308 950.357H10.1123L55.2016 946.608L44.4589 945.859C44.4589 945.859 89.0942 943.16 89.5482 943.759C90.0021 944.359 7.2375 942.11 7.2375 942.11L58.379 939.611L47.0311 938.711L86.2194 934.513H6.78358L64.5826 930.764L51.5702 928.965L83.9498 927.166C83.9498 927.166 6.02703 926.416 5.2705 926.266C4.51397 926.116 65.9444 923.267 65.9444 923.267L53.0833 921.318L77.2167 919.818L5.2705 918.244L71.3157 915.095L54.7477 912.846L75.401 910.347H5.2705L72.9045 907.173L56.1094 905.124L72.2236 902.625H5.49747L76.9897 899.251L54.7477 897.452L68.1383 895.202L4.8166 893.428L82.6637 890.054H49.6789L62.6913 888.03L6.85923 886.231L85.8412 882.632L48.6198 881.508L59.9678 880.383L9.12883 878.584L89.4725 874.085H44.3075L56.1094 871.386L9.58275 870.262L91.9691 866.438L40.9032 865.314L52.7051 863.739L12.5332 862.39L95.1465 859.016L37.9527 857.891L48.1659 856.317L14.5758 854.968L96.3695 850.244H32.7326L47.0311 847.32H15.9376L95.1969 842.597H28.6473L45.8963 840.348L19.569 839.223C19.569 839.223 95.3734 834.95 96.3569 834.95C97.3404 834.95 23.6542 833.601 23.6542 833.601L46.8041 832.201L23.4273 830.952L96.3569 826.453H20.2498L44.5345 823.754L26.1508 822.18L96.3569 818.581H15.9376L47.4598 815.882L32.7074 814.083L95.1213 810.934H13.668L48.3928 808.01L36.137 806.661L94.2387 802.387H12.0793L54.2938 800.138L40.6762 797.889L92.3725 794.29H10.4149L52.6294 791.366L44.6858 789.342L86.9003 786.643H6.63226L56.7903 782.595H46.1232L86.0681 779.446L5.2705 778.096L63.3721 774.048H49.6789L82.2098 771.549L3.00092 769.974L67.2305 766.826L53.5877 765.451L77.8723 762.302H3.90876L71.0888 758.479L55.2016 757.354L75.174 754.43H4.13571L74.4932 749.432H54.5207L71.0888 747.183L3.00092 746.058L77.6706 742.235L52.7051 741.11L65.6417 738.611L3.00092 737.487L80.848 734.563L49.6789 732.763L61.7834 730.677H6.40531L84.4794 725.791L47.2832 724.291L59.5391 721.792H7.84272L86.3707 718.419L44.6102 717.294L53.2346 715.495L8.97751 713.92L91.1369 711.221L40.2979 709.197L51.8729 707.623L11.0202 706.498L91.8178 702.899L36.2127 701.775L49.7546 699.526L13.9706 698.176L96.4326 693.903L31.2195 692.778L45.9719 691.204L15.7611 689.879L96.4578 686.056L26.9325 684.931L46.678 683.132L19.4429 681.782L96.4578 678.409L23.5281 677.059L42.5927 674.36L22.8473 673.011L96.4578 669.637L20.5777 668.512L42.1388 666.263L27.3865 664.689L91.616 662.19L16.3915 660.64L46.5771 658.141L32.2787 657.267L95.323 653.668L13.2393 652.093L49.7041 650.069L35.2544 648.27L93.8099 644.671H10.7175L53.3859 641.972L38.6336 640.173L91.2882 637.674L7.99402 636.324L50.6624 633.175L43.8536 631.151L87.6316 628.027H6.40531L59.9678 625.528L46.098 623.954L86.2698 621.255L4.5644 619.681L62.893 616.307L49.6537 614.957L82.6385 612.033H3.00092L66.5496 609.334L53.8398 606.66L78.8054 603.537H3.00092L71.0888 599.713L54.2938 598.364L75.401 596.339L3.00092 594.79L74.7201 591.866L54.9747 589.617L71.3662 587.118H3.00092L78.3515 584.194L53.3859 581.945L66.5496 580.145L5.2705 578.121L80.6211 575.197L51.4946 573.848L63.1452 572.048L6.63226 570.474L83.685 567.625L47.0311 565.976L59.2869 564.401L7.59054 562.827L86.7994 560.128L45.0389 557.629L56.7651 556.129L9.55752 554.88L90.103 551.943L40.7266 550.082L50.7129 548.282L13.1889 547.033L92.1708 543.134L38.3057 541.885L47.1319 540.385L13.2393 538.586L95.3861 535.025L32.9091 533.775L48.5441 531.838L20.7038 529.439L96.3569 526.44H29.53L46.1737 524.341L22.2168 522.242L96.3695 517.319L27.0208 516.832L48.1659 513.083L20.9559 510.909L96.3317 506.935H26.6677L44.2193 504.236L21.6368 502.537L94.9069 498.576L22.4312 498.651L41.7984 496.852L22.4312 495.202L93.4065 491.079L17.7533 490.179L41.9623 488.38L23.8055 487.03L92.6499 482.832H15.0172L43.5006 480.445L31.0935 479.396L92.3725 475.197H12.1802L46.0728 472.198L33.3631 471.299L91.1621 468.15H8.9649L50.1202 464.551L38.621 463.651L89.5229 459.965L7.14923 459.903L52.2385 456.154L41.4958 455.405C41.4958 455.405 86.1312 452.706 86.5851 453.305C87.039 453.905 4.27441 451.656 4.27441 451.656L55.416 449.157L44.068 448.257L83.2563 444.059H3.82049L61.6195 440.31L48.6072 438.511L80.9867 436.712C80.9867 436.712 3.06396 435.962 2.30743 435.812C1.55089 435.662 62.9813 432.813 62.9813 432.813L50.1202 430.864L74.2536 429.364L2.30743 427.79L68.3527 424.641L51.7846 422.354L72.501 419.855H2.30743L69.9792 416.719L53.1842 414.695L69.2983 412.196H2.53438L74.0267 408.822L51.7846 407.023L65.1752 404.773L1.89133 402.999L79.7385 399.625H46.7158L59.7282 397.601L3.89614 395.802L82.8781 392.203L45.6567 391.079L57.0047 389.954L6.16574 388.155L86.5094 383.656H41.3445L53.1464 380.957L6.61966 379.833L89.006 376.009L37.9401 374.885L49.742 373.31L9.57012 371.961L92.1834 368.587L34.9896 367.462L45.2028 365.888L11.6128 364.539L93.4065 359.878H29.7695L44.068 356.954H12.9745L92.1834 352.231H25.6843L42.9332 349.981L16.6059 348.857C16.6059 348.857 92.4104 344.584 93.3939 344.584C94.3774 344.584 20.6912 343.234 20.6912 343.234L43.841 341.885L20.4642 340.535L93.3939 336.037H17.2868L41.5714 333.338L23.1877 331.763L93.3939 328.165H12.9745L44.4967 325.466L29.7695 323.641L92.1834 320.493H10.7175L45.4423 317.569L33.1739 316.144L91.2756 311.871H9.1162L51.3307 309.622L37.7131 307.372L89.4095 303.774H7.45184L49.805 300.887L41.8614 298.863L84.0129 296.152H3.66919L53.8272 292.103H43.1601L83.105 288.954L2.30743 287.605L60.4091 283.556H46.7158L79.2467 281.057L0.0378265 279.483L64.2674 276.334L50.6498 274.985L74.9345 271.836H0.945666L68.1257 268.012L52.2385 266.888L72.211 263.964H1.17262L71.5301 258.966H51.5576L68.1257 256.716L0.0378265 255.592L74.7075 251.768L49.742 250.644L62.6787 248.145L0.0378265 247.02L77.885 244.096L46.7158 242.422L58.8203 240.335H3.44222L81.5163 235.449L44.2949 233.875L56.5508 231.376H4.85442L83.3824 228.002L41.6219 226.878L50.2463 225.078L5.98921 223.504L88.1486 220.805L37.3096 218.781L48.8846 217.206L8.03184 216.082L88.8294 212.483L33.2244 211.358L46.7663 209.109L10.9823 207.76L93.4443 203.486L28.2312 202.362L42.9836 200.787L12.798 199.438L93.4947 195.614L23.9694 194.49L43.7149 192.69L16.4798 191.341L93.4947 187.967L20.5651 186.618L39.6297 183.919L19.8842 182.569L93.4947 179.195L17.6146 178.071L39.1758 175.822L24.4234 174.247L92.8265 170.999L13.5293 170.199L43.7149 167.7L29.4165 166.8L92.4608 163.201L10.3014 161.627L46.7663 159.603L32.3165 157.803L90.8721 154.205H7.75445L50.4229 151.506L35.6705 149.706L88.3251 147.207L5.03095 145.858L47.6993 142.709L40.8905 140.685L84.6937 137.536H3.44222L57.0047 135.037L43.1349 133.463L83.3068 130.764L1.60133 129.189L59.9299 125.815L46.6906 124.466L79.6754 121.542H0.0378265L63.5865 118.843L50.8768 116.219L75.8423 113.07H0.0378265L68.1257 109.247L51.3307 107.897L72.501 105.885L0.100875 104.311L71.8201 101.387L52.0746 99.1379L68.4661 96.6388H0.0378265L75.3884 93.7274L50.4229 91.4783L63.5865 89.6789L2.30743 87.6547L77.658 84.7308L48.5441 83.3938L60.1947 81.5945L3.66919 79.9826L84.0129 77.2836L44.068 75.4843L56.3238 73.9098L4.62745 72.3354L83.8489 69.6739L42.0884 67.1749L53.8146 65.6754L6.60705 64.4259L88.8925 61.502L37.7509 59.7027L47.7372 57.9033L10.2132 56.6538L89.1951 52.7553L35.33 51.5057L44.1562 50.0063L10.2636 48.207L93.4821 44.6083L29.9335 43.3588L45.6693 41.2596L17.8289 38.8605L93.4821 35.8616H26.6551L43.2988 33.7624L19.342 31.6632L92.2717 28.9642L24.1838 26.2652L44.4589 25.0156L21.1577 22.0168L92.2717 19.0179H17.4381L43.1601 16.9187H24.7008L43.1601 15.0069L14.1598 12.008H92.2338L18.0937 9.9088L42.908 8.40936L30.1982 6.90992L92.2338 3.91104L10.2762 2.4116L42.9584 0.612274" stroke="white" stroke-miterlimit="10"/>
</svg>
