<svg width="263" height="263" viewBox="0 0 263 263" fill="none" xmlns="http://www.w3.org/2000/svg">
<path d="M131.5 260C202.469 260 260 202.469 260 131.5C260 60.5314 202.469 3 131.5 3C60.5314 3 3 60.5314 3 131.5C3 202.469 60.5314 260 131.5 260Z" fill="white"/>
<path d="M77.6534 247.454L82.9241 239.485L93.4103 225.22L96.5936 221.519L103.247 216.166L120.606 205.278H123.52L177.581 210.312L188.541 212.614L195.788 214.211L208.246 219.036L216.012 223.827L217.763 226.504L217.422 227.049L204.611 237.012L191.449 245.185L177.531 251.568L160.662 256.718L153.183 258.177L138.99 259.499L125.304 259.851L111.227 258.491L103.594 256.96L90.2765 253.204L79.9115 249.222L77.323 248.049L77.6534 247.454Z" fill="#231F20"/>
<path d="M79.3059 245.614L83.1942 238.086L92.5128 226.058L97.2051 220.572L103.484 215.483L121.328 204.843L126.499 205.702L180.18 211.055L191.383 212.542L198.195 215.114L210.119 219.928L217.885 226.52L220.159 224.224V224.78L207.112 235.508L194.373 243.676L180.808 250.048L163.84 255.858L156.476 257.334L142.284 258.656L128.598 259.009L114.521 257.648L106.887 256.117L93.5702 252.361L83.2052 248.379L79.3059 247.867V245.614Z" fill="#231F20"/>
<path d="M142.741 60.4648C142.19 60.6741 215.748 34.4641 215.748 34.4641C215.748 34.4641 183.942 4.97165 138.979 3.21477C96.7645 1.56254 75.2468 15.937 75.2468 15.937C75.2468 15.937 80.2311 25.162 86.6307 30.8071C93.9116 39.1399 114.939 49.0644 119.163 50.9865C122.44 52.4845 143.286 60.2555 142.741 60.4648Z" fill="#231F20"/>
<path d="M75.2636 15.8818C75.7042 16.6419 76.1228 17.446 76.5744 18.1895C77.026 18.933 77.4666 19.6875 77.9568 20.3924L78.6838 21.4939L79.4438 22.5569C79.945 23.2729 80.4957 23.9448 81.0299 24.6332C83.217 27.3495 85.6266 29.8788 88.2337 32.1949C93.4853 36.7949 99.2339 40.7942 105.373 44.1186C111.493 47.47 117.8 50.4673 124.263 53.0957C130.707 55.7724 137.25 58.2012 143.815 60.5639C156.945 65.2782 170.19 69.7117 183.182 74.8116C196.174 79.9116 208.952 85.6668 220.848 92.9863C224.87 95.9443 228.089 99.8615 230.21 104.381C232.264 108.928 233.081 113.936 232.579 118.899C232.054 123.842 230.646 128.652 228.421 133.097C227.346 135.331 226.13 137.494 224.78 139.574C223.467 141.68 221.89 143.611 220.088 145.318C216.48 148.717 212.613 151.829 208.522 154.626C204.474 157.479 200.316 160.166 196.108 162.777C187.693 167.992 179.096 172.894 170.46 177.724C161.824 182.554 153.123 187.279 144.448 192.043C135.774 196.807 127.1 201.577 118.563 206.589C114.306 209.105 110.071 211.666 105.962 214.42C103.913 215.797 101.887 217.223 99.9481 218.749C97.9754 220.235 96.1923 221.957 94.6389 223.877C91.5216 227.732 88.5091 231.642 85.6617 235.684C84.2353 237.706 82.8474 239.755 81.5421 241.853C80.2069 243.928 79.0003 246.084 77.9292 248.308L77.8797 248.412L77.7805 248.368L75.4949 247.267C74.7349 246.898 73.9804 246.551 73.2314 246.138H73.1763V246.077C73.0236 242.06 73.4502 238.043 74.443 234.148C75.4512 230.258 77.003 226.529 79.0528 223.072C83.1499 216.123 88.9744 210.352 95.9607 206.319L137.564 182.334L220.776 134.358C222.589 133.011 224.181 131.391 225.496 129.556C226.846 127.741 227.703 125.609 227.985 123.365C228.193 121.111 227.663 118.85 226.476 116.922C225.269 115.016 223.735 113.338 221.944 111.965C220.174 110.559 218.279 109.318 216.282 108.258C214.299 107.157 212.273 106.171 210.224 105.196C206.137 103.252 201.99 101.435 197.832 99.6613C189.499 96.12 181.095 92.7549 172.674 89.4395C164.253 86.124 155.805 82.869 147.34 79.6252L122.005 69.888C113.568 66.6165 105.125 63.3506 96.7758 59.8534C94.6884 58.9722 92.6066 58.08 90.5523 57.1327C89.5224 56.6591 88.498 56.1799 87.4902 55.6567C86.4711 55.1555 85.5012 54.56 84.5933 53.8778C80.9334 51.1736 77.8981 47.7137 75.6932 43.7331C73.53 39.7308 72.1822 35.3392 71.7278 30.8126C71.4828 28.5595 71.4221 26.2903 71.5461 24.0274C71.6562 21.7623 71.9696 19.5117 72.4824 17.3028L72.587 17.3413C72.5916 17.3289 72.5916 17.3152 72.587 17.3028H72.6145C72.6419 17.3077 72.6698 17.3077 72.6972 17.3028L72.8734 17.2367C72.9891 17.1871 73.1047 17.132 73.2149 17.0714C73.4462 16.9613 73.6665 16.8401 73.8923 16.7135L74.5587 16.339C74.7735 16.1352 75.0323 16.003 75.2636 15.8818ZM75.2636 15.9865C75.0543 16.1242 74.8726 16.2398 74.6413 16.372L73.9749 16.752C73.7491 16.8732 73.5288 16.9999 73.2975 17.1155L72.9505 17.2807L72.7632 17.3523H72.6641C72.6406 17.3582 72.616 17.3582 72.5925 17.3523C72.5671 17.3502 72.5434 17.3384 72.5264 17.3193C72.5182 17.304 72.5139 17.287 72.5139 17.2697C72.5139 17.2524 72.5182 17.2354 72.5264 17.2202L72.7467 16.8677L72.6531 17.2697C72.1515 19.4723 71.8493 21.7155 71.7499 23.9723C71.6377 26.2286 71.7077 28.4904 71.9592 30.7355C72.4335 35.2293 73.7924 39.5849 75.9576 43.5513C78.1545 47.4918 81.1728 50.914 84.8081 53.5859C85.7054 54.251 86.6622 54.8317 87.6664 55.3207C88.6688 55.8329 89.6932 56.3066 90.7176 56.7802C92.7773 57.711 94.8537 58.5977 96.9465 59.4624C105.301 62.9155 113.761 66.1484 122.209 69.3758L147.593 79.0359C156.053 82.2687 164.501 85.5071 172.927 88.8116C181.354 92.1161 189.775 95.4646 198.118 99.0004C202.288 100.768 206.446 102.58 210.549 104.508C212.598 105.483 214.635 106.491 216.64 107.581C218.677 108.658 220.61 109.919 222.417 111.348C224.271 112.788 225.856 114.544 227.099 116.536C228.369 118.601 228.937 121.022 228.718 123.437C228.424 125.81 227.523 128.068 226.102 129.991C224.738 131.9 223.086 133.587 221.206 134.992H221.173L138.021 183.154L96.4508 207.211C89.6303 211.164 83.948 216.814 79.956 223.612C77.9616 226.987 76.4542 230.627 75.4784 234.423C74.5204 238.217 74.1124 242.129 74.2668 246.039L73.7931 245.245C74.096 245.411 74.4926 245.603 74.8561 245.796L75.9576 246.347L78.2321 247.448L76.9104 247.961C77.4611 246.738 78.0559 245.67 78.6783 244.568C79.3006 243.467 79.9505 242.415 80.6114 241.357C81.9387 239.237 83.3651 237.177 84.775 235.15C87.6499 231.086 90.6845 227.148 93.8238 223.298L94.4075 222.577L95.0519 221.839C95.498 221.376 95.9441 220.902 96.4178 220.478C97.343 219.603 98.3178 218.826 99.2982 218.022C101.275 216.474 103.319 215.043 105.389 213.655C109.526 210.901 113.777 208.329 118.057 205.812C126.615 200.806 135.3 196.042 143.986 191.294C152.671 186.547 161.362 181.772 170.008 176.953C178.655 172.134 187.247 167.254 195.651 162.083C199.853 159.489 204 156.812 208.037 153.981C212.095 151.214 215.932 148.137 219.515 144.778C219.956 144.354 220.363 143.908 220.793 143.479C221.222 143.049 221.613 142.581 221.993 142.118C222.766 141.188 223.471 140.203 224.103 139.172C225.437 137.121 226.642 134.989 227.71 132.789C229.9 128.427 231.29 123.707 231.813 118.855C232.316 114.018 231.529 109.135 229.533 104.701C227.475 100.289 224.348 96.4609 220.435 93.5645L220.479 93.5976C208.649 86.2782 195.915 80.5008 182.956 75.423C176.474 72.862 169.92 70.4663 163.355 68.1201L143.65 61.054C137.09 58.6638 130.553 56.1964 124.109 53.4923C117.647 50.8249 111.342 47.7927 105.224 44.4105C99.0903 41.0377 93.351 36.9923 88.1125 32.3491C85.5085 30.0152 83.1043 27.4673 80.9253 24.7323C80.3745 24.0384 79.8238 23.361 79.3447 22.6395L78.5846 21.5766L77.8632 20.4751C77.373 19.7536 76.9379 18.9936 76.4863 18.2721C76.0347 17.5506 75.6491 16.752 75.2361 15.9865H75.2636Z" fill="#231F20"/>
<path d="M220.666 39.0298L215.709 34.5302H215.797C197.678 40.772 179.613 47.1827 161.604 53.7623C152.616 57.0667 143.639 60.4373 134.761 64.0281C130.322 65.8015 125.987 67.8283 121.675 69.8991C117.363 71.9699 113.089 74.1398 108.837 76.3373C100.323 80.7433 91.8979 85.2979 83.5633 90.0013C75.2305 94.7212 66.9749 99.5843 58.8734 104.679C54.8346 107.227 50.8325 109.848 46.8671 112.543C42.9348 115.259 39.052 118.051 35.3951 121.102C33.5605 122.595 31.8325 124.215 30.2236 125.948C29.4463 126.787 28.7664 127.711 28.1968 128.702C27.6461 129.749 27.1725 130.823 26.7429 131.919C25.0131 136.317 24.0087 140.967 23.7689 145.687C23.6311 148.046 23.6697 150.411 23.8845 152.764C23.981 153.93 24.1465 155.088 24.3802 156.234C24.639 157.38 24.9309 158.52 25.2999 159.654C26.6938 164.187 28.6046 168.545 30.9946 172.641C33.3628 176.75 36.2729 180.521 39.6469 183.854C43.0204 187.16 46.8937 189.915 51.1244 192.016C53.2381 193.061 55.4292 193.941 57.6783 194.649C59.9253 195.348 62.2495 195.866 64.5846 196.383C69.2439 197.397 73.9473 198.234 78.6727 199.005C88.118 200.536 97.6128 201.759 107.124 202.899C126.147 205.151 145.225 206.93 164.308 208.753C169.083 209.216 173.853 209.678 178.628 210.202C183.444 210.659 188.221 211.469 192.919 212.625C197.619 213.825 202.206 215.432 206.627 217.427C208.851 218.422 211.014 219.548 213.104 220.798C213.627 221.112 214.145 221.448 214.663 221.795C214.927 221.988 215.17 222.142 215.45 222.346C215.713 222.555 215.961 222.781 216.194 223.023C217.073 223.922 217.878 224.891 218.601 225.92L217.086 225.782L228.547 214.216L228.349 215.318C227.341 213.23 226.17 211.224 224.846 209.32C223.527 207.396 222.089 205.557 220.539 203.813C217.445 200.304 213.89 197.23 209.97 194.676C206.06 192.133 201.79 190.192 197.303 188.915C195.057 188.278 192.767 187.807 190.452 187.505C189.29 187.351 188.128 187.241 186.96 187.164L183.408 186.966C164.424 185.969 145.407 185.231 126.411 184.322C116.911 183.87 107.405 183.408 97.9047 182.846C93.1573 182.565 88.4099 182.295 83.6569 181.915C81.2832 181.75 78.9095 181.535 76.5358 181.365L72.978 181.012C71.7884 180.896 70.6043 180.781 69.4147 180.616L67.6247 180.384L66.6885 180.258C66.3911 180.219 66.0992 180.142 65.8018 180.087L64.0339 179.734L62.2825 179.332C59.9473 178.782 57.6287 178.154 55.3541 177.394C50.7703 175.921 46.3675 173.935 42.2299 171.473C38.0761 169.001 34.3198 165.915 31.0883 162.32C29.4883 160.522 28.0317 158.601 26.7319 156.575C26.4069 156.052 26.093 155.606 25.7626 155.011C25.472 154.442 25.2359 153.846 25.0576 153.232C24.6933 152.029 24.5078 150.778 24.5069 149.52C24.5129 146.99 25.2974 144.523 26.7539 142.454C28.2133 140.453 30.0931 138.795 32.2613 137.597C33.3189 137.006 34.4093 136.477 35.5273 136.011L38.7987 134.579L45.3416 131.731L71.5075 120.358C88.9514 112.769 106.377 105.143 123.784 97.4804C132.481 93.6252 141.193 89.8251 149.807 85.7991C151.944 84.7527 154.141 83.8385 156.317 82.8747C158.492 81.9109 160.64 80.914 162.777 79.8676C167.056 77.8078 171.286 75.6434 175.444 73.3302C183.769 68.745 191.785 63.6194 199.44 57.9865C203.262 55.163 206.963 52.1834 210.543 49.0479C212.328 47.4782 214.074 45.8701 215.77 44.2013C216.612 43.3697 217.455 42.5491 218.27 41.6624C218.678 41.2328 219.085 40.7977 219.482 40.3571L220.077 39.6907L220.363 39.3547L220.512 39.1895C220.589 39.1014 220.627 39.0408 220.666 39.0298ZM220.776 39.0298C220.735 39.1067 220.683 39.1772 220.622 39.2391L220.479 39.4098L220.187 39.7513L219.598 40.4177C219.201 40.8638 218.793 41.2989 218.386 41.734C217.576 42.6041 216.734 43.4468 215.896 44.2839C214.206 45.9362 212.46 47.5884 210.681 49.1525C207.116 52.3101 203.422 55.308 199.6 58.1462C191.96 63.8205 183.955 68.9866 175.637 73.6111C171.49 75.9408 167.26 78.1217 162.97 80.2201C160.838 81.2775 158.669 82.2578 156.515 83.2602C154.362 84.2625 152.153 85.1548 150.016 86.2067C141.419 90.2712 132.717 94.1154 124.032 97.9926C106.651 105.725 89.2378 113.382 71.7939 120.964L45.661 132.343L39.1236 135.196L35.8577 136.633C34.7651 137.093 33.6987 137.614 32.6634 138.192C30.5811 139.334 28.776 140.921 27.3762 142.84C26.0078 144.787 25.2732 147.108 25.2724 149.487C25.2281 151.869 25.9651 154.2 27.3707 156.124C28.6483 158.125 30.083 160.022 31.661 161.797C34.8451 165.329 38.5459 168.36 42.6374 170.785C46.7303 173.214 51.085 175.173 55.6185 176.623C57.871 177.372 60.1676 177.994 62.4808 178.534L64.2156 178.93L65.9615 179.277C66.2534 179.332 66.5453 179.398 66.8372 179.442L67.7184 179.553L69.4863 179.778C70.6648 179.944 71.849 180.054 73.0275 180.169L76.5799 180.511C78.9481 180.698 81.3163 180.913 83.69 181.062C88.4319 181.403 93.1793 181.695 97.9268 181.97C107.416 182.521 116.916 182.967 126.422 183.402C145.423 184.283 164.424 184.994 183.43 185.969C185.798 186.095 188.183 186.178 190.546 186.52C192.911 186.826 195.25 187.304 197.546 187.951C202.14 189.245 206.514 191.223 210.521 193.817C214.525 196.417 218.158 199.548 221.321 203.124C222.906 204.905 224.377 206.783 225.727 208.748C227.088 210.707 228.294 212.769 229.335 214.916L229.362 214.982L229.313 215.037L217.857 226.603L217.769 226.696L217.692 226.586C217.009 225.607 216.246 224.686 215.412 223.833C214.54 223.023 213.573 222.322 212.531 221.745C210.481 220.517 208.359 219.414 206.176 218.441C201.813 216.467 197.288 214.877 192.65 213.688C188.001 212.536 183.274 211.726 178.506 211.264C173.742 210.714 168.978 210.273 164.187 209.805C145.109 207.949 126.02 206.143 106.987 203.857C97.4696 202.706 87.9638 201.467 78.502 199.919C73.7711 199.143 69.0512 198.267 64.3698 197.265C62.0292 196.747 59.6885 196.218 57.3919 195.502C55.1032 194.778 52.8734 193.88 50.7223 192.815C46.4177 190.666 42.4776 187.854 39.0465 184.482C35.6296 181.096 32.6825 177.267 30.2842 173.098C27.8722 168.944 25.943 164.527 24.5344 159.935C24.1819 158.789 23.868 157.627 23.6091 156.454C23.3669 155.278 23.1958 154.088 23.0969 152.891C22.8831 150.499 22.8481 148.095 22.9923 145.698C23.242 140.893 24.2726 136.161 26.0434 131.687C26.4785 130.586 26.9907 129.484 27.5304 128.41C28.1262 127.362 28.8414 126.386 29.6618 125.502C31.2979 123.744 33.0535 122.101 34.9159 120.584C38.6115 117.522 42.5107 114.724 46.4816 112.009C50.4525 109.294 54.4564 106.689 58.5154 104.144C66.6334 99.0335 74.8946 94.176 83.2274 89.4671C91.5602 84.7582 100.014 80.2091 108.562 75.8306C112.824 73.6277 117.115 71.5018 121.438 69.4365C125.761 67.3712 130.118 65.3665 134.579 63.6041C143.479 60.0407 152.473 56.7198 161.477 53.4373C179.498 46.9055 197.586 40.5645 215.742 34.4146H215.775H215.803L220.776 39.0298Z" fill="#231F20"/>
<path d="M64.0391 120.827C63.5764 122.512 78.1987 140.609 80.6936 139.067C83.1885 137.525 84.2294 136.82 86.2451 135.631C88.2609 134.441 79.3388 111.838 78.05 111.838C76.7613 111.838 64.5017 119.125 64.0391 120.827Z" fill="#231F20"/>
<path d="M40.7755 131.5C41.7668 129.749 60.2884 124.627 61.2908 125.442C62.2931 126.257 61.2302 150.952 57.6944 150.952C54.1586 150.952 51.0304 150.853 45.7983 150.952C42.8573 150.369 39.7841 133.251 40.7755 131.5Z" fill="#231F20"/>
<path d="M103.808 182.4C103.808 182.4 94.5228 153.915 91.5323 154.796C89.0188 155.543 86.5478 156.425 84.1303 157.44C81.2223 158.597 89.6763 181.574 89.6763 181.574L103.808 182.4Z" stroke="#231F20" stroke-miterlimit="10"/>
<path d="M203.769 144.294H159.208C156.895 144.294 161.918 146.205 161.587 151.096C161.257 155.986 151.123 157.044 155.375 157.044C159.627 157.044 180.087 157.936 180.087 157.936L203.769 144.294Z" fill="#231F20"/>
<path d="M159.588 84.224C159.588 84.224 152.726 94.1374 152.07 96.77C151.415 99.4026 152.401 101.793 158.812 101.793H195.711C195.711 101.793 203.422 101.198 204.567 103.908C205.713 106.617 198.884 106.661 198.884 106.661C198.884 106.661 161.477 107.917 157.908 107.917C154.339 107.917 152.092 117.726 156.19 117.83C160.288 117.935 219.741 118.844 219.741 118.844C219.741 118.844 225.799 118.58 225.799 121.686C225.799 127.27 220.512 126.907 220.512 126.907C220.512 126.907 128.912 127.964 125.078 127.964C121.245 127.964 124.946 139.86 129.044 139.86C133.141 139.86 200.553 139.596 204.496 139.86C208.439 140.125 208.511 141.849 208.511 141.849" stroke="#231F20" stroke-miterlimit="10"/>
<path d="M82.0046 13.2658C81.3107 13.9873 81.4869 18.8724 87.5671 19.7095C93.6474 20.5467 160.877 19.8087 160.877 19.8087C160.877 19.8087 164.594 19.2579 162.909 16.4051C161.378 13.8 157.754 10.5892 146.453 10.5892C135.152 10.5892 92.7001 8.93693 89.8472 10.0825C86.9944 11.228 83.007 12.2249 82.0046 13.2658Z" fill="white"/>
<path d="M202.364 29.3532C201.494 28.4169 193.442 22.7442 188.089 22.0338C182.736 21.3233 86.3772 21.9457 84.791 22.0338C83.2049 22.1219 81.817 23.1353 83.0066 25.5365C84.1962 27.9378 89.1529 30.2289 95.123 30.2289H200.205C200.205 30.2289 203.218 30.2784 202.364 29.3532Z" fill="white"/>
<path d="M100.278 34.0785H172.531C172.531 34.0785 180.753 34.04 180.753 36.4688C180.753 38.8976 177.895 41.0069 173.429 41.0069C168.962 41.0069 115.914 41.2547 109.173 41.0069C105.117 40.8437 101.211 39.4318 97.9874 36.9644C97.9874 36.9644 95.1565 34.0785 100.278 34.0785Z" fill="white"/>
<path d="M171.209 46.977C167.96 49.3397 154.373 50.4963 144.856 50.4963C135.339 50.4963 114.939 48.1886 114.939 46.977C114.939 45.7654 115.628 44.9943 120.447 44.9943H169.122C171.528 44.9778 172.167 46.1894 171.209 46.977Z" fill="white"/>
<path d="M108.909 215.257C111.536 212.619 122.529 211.336 130.228 211.336C137.928 211.336 154.461 213.908 154.461 215.257C154.461 216.607 153.91 217.46 150.022 217.46H110.611C108.65 217.466 108.132 216.117 108.909 215.257Z" fill="white"/>
<path d="M104.321 219.168C106.849 219.168 199.308 217.78 204.248 219.267C206.011 219.818 219.366 227.198 215.946 227.198H96.4893C94.5066 227.198 95.2006 226.206 96.4893 224.323C97.7781 222.439 101.793 219.168 104.321 219.168Z" fill="white"/>
<path d="M172.822 229.874H208.659C209.915 229.874 214.998 229.797 213.814 230.425C212.41 231.174 205.377 236.406 205.377 236.406C205.377 236.406 200.712 236.456 196.515 236.406C194.103 236.406 158.745 235.828 155.11 235.921C154.438 235.183 169.072 229.874 172.822 229.874Z" fill="white"/>
<path d="M197.276 240.052C195.888 240.052 89.412 239.402 87.8313 240.052C86.2507 240.702 79.8841 247.718 82.0155 247.718C83.2546 247.718 177.592 248.732 182.549 247.906C187.737 245.703 197.011 242.002 198.052 241.093C199.093 240.184 198.663 240.052 197.276 240.052Z" fill="white"/>
<path d="M166.214 252.477H174.64C171.853 253.534 172.272 253.397 168.268 254.68C167.144 254.608 165.553 252.477 166.214 252.477Z" fill="white"/>
<path d="M82.8088 248.908C82.3053 249.121 81.8787 249.482 81.5862 249.943C84.2518 250.439 89.9024 253.435 95.2502 254.812C103.473 256.932 113.26 259.444 122.787 259.708C137.916 260.121 150.65 258.607 152.076 258.359C156.901 257.483 157.148 257.257 159.594 255.385C161.477 253.958 162.981 249.018 158.801 248.908C154.621 248.798 84.037 248.247 82.8088 248.908Z" fill="white"/>
<path d="M131.5 260C202.469 260 260 202.469 260 131.5C260 60.5314 202.469 3 131.5 3C60.5314 3 3 60.5314 3 131.5C3 202.469 60.5314 260 131.5 260Z" stroke="#DDFA2C" stroke-width="5" stroke-miterlimit="10"/>
<path d="M206.958 216.447C206.958 216.447 218.154 224.196 219.294 223.552C219.564 223.397 219.911 222.973 220.803 222.241C223.651 219.9 228.486 215.081 228.486 215.081C228.486 215.081 226.355 211.463 224.818 209.331C223.819 208.004 222.49 206.962 220.963 206.308L206.958 216.447Z" fill="white"/>
<path d="M221.199 223.034C221.199 223.034 218.225 225.633 217.956 225.237C217.686 224.84 216.144 222.67 216.144 222.67L217.311 220.875L220.952 220.324L228.354 214.872L228.618 215.213L221.199 223.034Z" fill="white"/>
<path d="M157.952 185.66L132.904 184.603L102.503 202.315L122.892 204.667L157.952 185.66Z" fill="white"/>
<path d="M177.432 73.2587L176.281 72.8291C170.118 70.5656 141.446 60.162 141.446 60.162L121.619 69.1887L159.621 83.6403C159.621 83.6403 177.702 73.4129 177.432 73.2587Z" fill="white"/>
<path d="M176.287 72.8236L176.727 72.9888V73.0329L176.287 72.9117V72.8236Z" fill="white"/>
<path d="M71.9155 120.158C77.5974 116.877 81.4613 112.932 80.5458 111.347C79.6303 109.761 74.2819 111.135 68.6 114.415C62.9181 117.696 59.0542 121.64 59.9698 123.226C60.8853 124.812 66.2336 123.438 71.9155 120.158Z" fill="#231F20"/>
<path d="M49.8693 130.692C56.254 129.182 61.088 126.513 60.6665 124.731C60.2449 122.949 54.7274 122.729 48.3427 124.239C41.958 125.75 37.124 128.419 37.5455 130.2C37.9671 131.982 43.4846 132.202 49.8693 130.692Z" fill="#231F20"/>
<path d="M208.891 141.7L208.527 141.529L208.12 141.033L206.782 140.196L204.32 139.778L201.775 139.712L196.747 139.816L191.922 139.75L129.06 139.959L128.003 139.712L126.439 138.313L124.88 136L123.68 132.216L123.498 130.096L124.049 128.427L124.776 127.898L127.436 127.948L222.158 126.907L226.999 127.1L225.226 130.04L222.456 133.648L217.433 136.82L209.348 141.055L208.891 141.7Z" fill="#231F20"/>
<path d="M221.514 127.303L221.977 126.659L223.91 126.108L225.678 124.043L225.826 120.97L224.549 119.56L222.142 118.877L213.066 118.756L156.339 117.869L155.27 117.643L154.13 115.991L153.993 113.171L155.05 110.296L156.768 108.148L158.338 107.95L165.691 107.868L198.867 106.694L201.974 106.502L204.083 105.609L204.782 104.563L204.485 103.522L202.635 102.2L200.635 101.87L198.983 101.787L201.561 100.779L210.45 105.185L219.52 109.635L224.196 113.876L226.559 116.41L227.749 119.742L228.343 122.952L227.517 126.488C227.517 126.488 226.295 129.363 226.195 129.363C225.868 129.717 225.57 130.096 225.303 130.498L221.514 127.303Z" fill="#231F20"/>
<path d="M152.081 98.4884L151.943 97.4034L152.5 95.641L154.598 91.8574L159.736 84.0148L201.191 100.768L201.852 101.198L201.703 101.694L198.481 101.754L190.898 101.793H163.735H156.795L153.711 100.912L151.943 99.1327L152.081 98.4884Z" fill="#231F20"/>
</svg>
