<svg width="72" height="154" viewBox="0 0 72 154" fill="none" xmlns="http://www.w3.org/2000/svg">
<path d="M6.09082 151.74C20.0308 158.29 36.4608 125.45 46.1608 104.74C48.3308 100.1 50.8308 94.99 53.1608 89.74V118.74C53.1608 119.39 53.1608 120.04 53.1608 120.68C53.1608 123.92 53.1608 128.29 53.1608 132.77C53.1608 144.57 53.7308 152.48 62.2408 152.48H62.3208C62.6519 152.53 62.986 152.557 63.3208 152.56H71.4908C68.3808 152.56 66.5908 151.98 65.5708 149.89C63.9108 146.48 64.2908 139.07 64.3708 123.59C64.3708 123.12 64.2908 47.81 64.2908 47.81V1C64.2908 1 54.9708 5.08 53.1908 5.74V48.87C40.8808 44.95 30.8808 62.53 17.3208 91.4C2.23082 123.51 -4.36918 146.74 6.09082 151.74ZM26.5308 95.74C38.1408 72.09 49.0908 54.24 52.3608 55.74C55.6308 57.24 49.0008 77.05 37.3608 100.74C25.7208 124.43 11.0008 151.45 6.88082 149.51C2.76082 147.57 14.8808 119.28 26.5308 95.64V95.74Z" stroke="#232222" stroke-miterlimit="10"/>
</svg>
